<svg width="73" height="96" viewBox="0 0 73 96" fill="none" xmlns="http://www.w3.org/2000/svg">
<path d="M0.999998 0C14.2551 0 25 10.7449 25 24C25 10.7449 35.7449 0 49 0C62.2551 0 73 10.7449 73 24C73 37.2551 62.2551 48 49 48C62.2551 48 73 58.7449 73 72C73 85.2551 62.2551 96 49 96C35.7449 96 25 85.2551 25 72C25 85.2551 14.2551 96 0.999998 96C-12.2551 96 -23 85.2551 -23 72C-23 58.7449 -12.2551 48 0.999998 48C-12.2551 48 -23 37.2551 -23 24C-23 10.7449 -12.2551 0 0.999998 0Z" fill="#F55A32"/>
</svg>
