<svg width="127" height="127" viewBox="0 0 127 127" fill="none" xmlns="http://www.w3.org/2000/svg">
<g filter="url(#filter0_d_903_489)">
<path d="M4 59.5015C34.6499 64.1618 44.901 75.0354 44.901 75.0354C57.7649 86.1463 63.4643 119 63.4643 119H63.5364C63.5364 119 69.4091 86.2475 82.099 75.0362C82.099 75.0362 92.3501 64.1626 123 59.5022V59.4985C92.3501 54.8382 82.099 43.9646 82.099 43.9646C69.4083 32.7525 63.5357 0 63.5357 0H63.4636C63.4636 0 57.7642 32.8537 44.901 43.9638C44.901 43.9638 34.6499 54.8374 4 59.4978V59.5015Z" fill="#5271FF"/>
</g>
<defs>
<filter id="filter0_d_903_489" x="0" y="0" width="127" height="127" filterUnits="userSpaceOnUse" color-interpolation-filters="sRGB">
<feFlood flood-opacity="0" result="BackgroundImageFix"/>
<feColorMatrix in="SourceAlpha" type="matrix" values="0 0 0 0 0 0 0 0 0 0 0 0 0 0 0 0 0 0 127 0" result="hardAlpha"/>
<feOffset dy="4"/>
<feGaussianBlur stdDeviation="2"/>
<feComposite in2="hardAlpha" operator="out"/>
<feColorMatrix type="matrix" values="0 0 0 0 0 0 0 0 0 0 0 0 0 0 0 0 0 0 0.25 0"/>
<feBlend mode="normal" in2="BackgroundImageFix" result="effect1_dropShadow_903_489"/>
<feBlend mode="normal" in="SourceGraphic" in2="effect1_dropShadow_903_489" result="shape"/>
</filter>
</defs>
</svg>
