<svg width="200" height="43" viewBox="0 0 200 43" fill="none" xmlns="http://www.w3.org/2000/svg">
<g clip-path="url(#clip0_903_456)">
<path d="M50.4422 35.4424C49.2702 35.4424 48.3704 35.1384 47.7428 34.538C47.1152 33.9375 46.8052 33.0627 46.8052 31.9137V18.9332C46.8052 17.8064 47.1076 16.9465 47.705 16.346C48.3023 15.7455 49.1643 15.4416 50.2834 15.4416C51.4025 15.4416 52.257 15.7455 52.8468 16.346C53.4366 16.9465 53.7239 17.8138 53.7239 18.9332V20.5419H53.3231C53.5878 18.9703 54.2759 17.7323 55.3798 16.813C56.4838 15.9012 57.8676 15.412 59.5235 15.3601C60.2948 15.3378 60.877 15.5232 61.2626 15.9309C61.6483 16.3386 61.8524 17.0873 61.8827 18.1845C61.8827 19.126 61.6861 19.8747 61.2853 20.4233C60.8846 20.9718 60.1284 21.298 59.0018 21.4018L58.0793 21.4833C56.6653 21.6168 55.6369 22.0023 55.0018 22.6398C54.3666 23.2773 54.0415 24.2262 54.0415 25.4791V31.9137C54.0415 33.0627 53.7315 33.9375 53.119 34.538C52.5065 35.1384 51.6142 35.4424 50.4422 35.4424Z" fill="#231F20"/>
<path d="M70.8052 35.5165C69.2853 35.5165 67.947 35.2422 66.7825 34.6936C65.6256 34.1451 64.7182 33.3963 64.0604 32.44C63.4101 31.4837 63.0774 30.394 63.0774 29.1634C63.0774 27.7549 63.4479 26.6429 64.1965 25.8275C64.9451 25.0194 66.1398 24.4338 67.7957 24.0854C69.4517 23.7296 71.6521 23.5591 74.3969 23.5591H76.5972V26.8505H74.3969C73.3534 26.8505 72.4989 26.9246 71.8184 27.0655C71.1379 27.2063 70.6388 27.4287 70.3212 27.7327C70.0037 28.0366 69.8449 28.4147 69.8449 28.8891C69.8449 29.4896 70.0642 29.9863 70.5027 30.3792C70.9413 30.7721 71.5764 30.9648 72.4006 30.9648C73.0661 30.9648 73.6634 30.824 74.1776 30.5349C74.6993 30.2457 75.1152 29.8454 75.4403 29.3413C75.7579 28.8298 75.9167 28.2368 75.9167 27.5548V23.0031C75.9167 22.0616 75.6672 21.3944 75.1757 21.0015C74.6842 20.6086 73.8373 20.4159 72.635 20.4159C71.9923 20.4159 71.274 20.49 70.4725 20.6308C69.671 20.7717 68.7787 21.0312 67.7957 21.3944C67.0774 21.6539 66.4649 21.6983 65.9583 21.513C65.4517 21.3277 65.0585 21.0163 64.7787 20.5715C64.4989 20.1267 64.3628 19.6449 64.378 19.1186C64.3931 18.5922 64.567 18.103 64.8997 17.6285C65.2324 17.1615 65.7466 16.7908 66.4422 16.5314C67.7201 16.0643 68.8997 15.7456 69.981 15.5899C71.0623 15.4342 72.0528 15.3527 72.9602 15.3527C75.1454 15.3527 76.9526 15.664 78.3817 16.2719C79.8109 16.8872 80.877 17.8287 81.5802 19.0963C82.2834 20.364 82.6388 21.9949 82.6388 23.9816V31.9063C82.6388 33.0553 82.3591 33.9301 81.7995 34.5306C81.24 35.131 80.4233 35.435 79.3572 35.435C78.291 35.435 77.429 35.131 76.8543 34.5306C76.2797 33.9301 75.9923 33.0553 75.9923 31.9063V30.8907L76.2343 31.4393C76.0982 32.277 75.7957 32.996 75.3118 33.5965C74.8354 34.197 74.2078 34.6714 73.429 35.005C72.6577 35.346 71.773 35.5165 70.7901 35.5165H70.8052Z" fill="#231F20"/>
<path d="M93.24 35.4424C92.3327 35.4424 91.5463 35.2275 90.8809 34.7975C90.2155 34.3675 89.6786 33.6929 89.2778 32.7811L83.8412 19.8822C83.4933 19.0741 83.3724 18.3328 83.4782 17.6656C83.5841 16.9985 83.9092 16.4647 84.4612 16.057C85.0056 15.6493 85.7618 15.4491 86.7221 15.4491C87.5463 15.4491 88.2268 15.6418 88.7637 16.0199C89.3005 16.398 89.7769 17.1393 90.2003 18.2365L94.0415 28.1182H93.2022L97.24 17.4877C97.5047 16.7835 97.8752 16.2645 98.3364 15.9384C98.8052 15.6122 99.395 15.4491 100.113 15.4491C100.885 15.4491 101.497 15.6196 101.951 15.9606C102.404 16.3016 102.767 16.8131 103.032 17.4877L107.07 28.1182H106.352L110.231 17.9992C110.601 17.0059 111.085 16.3313 111.667 15.9828C112.257 15.627 112.877 15.4565 113.55 15.4565C114.457 15.4565 115.153 15.6641 115.629 16.0866C116.106 16.5092 116.386 17.0503 116.446 17.7324C116.514 18.4144 116.37 19.1409 116.023 19.9267L110.624 32.7515C110.253 33.6633 109.732 34.3453 109.066 34.7901C108.401 35.2349 107.614 35.4573 106.707 35.4573C105.8 35.4573 104.983 35.2349 104.325 34.7901C103.675 34.3453 103.146 33.6633 102.745 32.7515L98.344 21.9653H101.263L97.1039 32.6699C96.7334 33.6114 96.2268 34.3082 95.5841 34.7678C94.9414 35.2275 94.155 35.4573 93.2249 35.4573L93.24 35.4424Z" fill="#231F20"/>
<path d="M126.843 35.5165C125.671 35.5165 124.476 35.4276 123.266 35.2645C122.049 35.094 120.953 34.79 119.97 34.3452C119.304 34.0858 118.828 33.7299 118.548 33.2851C118.268 32.8404 118.132 32.3733 118.147 31.8766C118.162 31.38 118.306 30.9278 118.586 30.52C118.866 30.1123 119.236 29.8306 119.705 29.6601C120.174 29.4896 120.696 29.5118 121.285 29.7194C122.404 30.1123 123.41 30.394 124.302 30.5645C125.195 30.735 126.057 30.8166 126.881 30.8166C127.864 30.8166 128.575 30.6831 128.998 30.4014C129.421 30.1271 129.641 29.7713 129.641 29.3191C129.641 28.9262 129.497 28.6297 129.217 28.4147C128.938 28.2071 128.544 28.0589 128.038 27.9847L123.599 27.2805C121.943 26.9914 120.665 26.3983 119.758 25.4939C118.851 24.5895 118.397 23.4108 118.397 21.943C118.397 20.5864 118.79 19.4151 119.576 18.4291C120.363 17.4506 121.444 16.6944 122.813 16.1533C124.189 15.6195 125.769 15.3527 127.554 15.3527C128.756 15.3527 129.845 15.4416 130.835 15.6047C131.818 15.7752 132.779 16.0792 133.716 16.5239C134.306 16.7612 134.714 17.1022 134.956 17.5395C135.198 17.9769 135.289 18.4514 135.236 18.9332C135.183 19.4151 135.017 19.8599 134.737 20.2676C134.457 20.6753 134.079 20.9496 133.595 21.0905C133.119 21.2313 132.552 21.2017 131.917 20.9941C131.04 20.6531 130.253 20.4085 129.58 20.2528C128.9 20.0971 128.265 20.0156 127.682 20.0156C126.586 20.0156 125.815 20.1638 125.361 20.4455C124.907 20.7346 124.68 21.0979 124.68 21.5427C124.68 21.8837 124.801 22.1654 125.043 22.3878C125.285 22.6102 125.656 22.7584 126.163 22.84L130.601 23.5887C132.31 23.8482 133.618 24.419 134.541 25.2937C135.463 26.1685 135.924 27.3546 135.924 28.8447C135.924 30.9648 135.1 32.6031 133.444 33.767C131.788 34.9309 129.588 35.5091 126.843 35.5091V35.5165Z" fill="#231F20"/>
<path d="M141.565 35.4425C140.446 35.4425 139.576 35.1385 138.964 34.538C138.352 33.9376 138.042 33.0628 138.042 31.9138V10.6157C138.042 9.46667 138.344 8.59191 138.964 7.99144C139.576 7.39098 140.446 7.08704 141.565 7.08704C142.684 7.08704 143.599 7.39098 144.227 7.99144C144.854 8.59191 145.164 9.46667 145.164 10.6157V19.1631H144.522C145.164 17.9325 146.072 16.991 147.259 16.3387C148.446 15.6863 149.8 15.3601 151.319 15.3601C152.839 15.3601 154.185 15.6567 155.198 16.2423C156.212 16.828 156.968 17.7472 157.482 18.9852C157.989 20.2232 158.246 21.7874 158.246 23.6703V31.9064C158.246 33.0554 157.936 33.9302 157.323 34.5306C156.711 35.1311 155.826 35.435 154.684 35.435C153.542 35.435 152.658 35.1311 152.045 34.5306C151.433 33.9302 151.123 33.0554 151.123 31.9064V23.9446C151.123 22.7659 150.919 21.9282 150.503 21.4315C150.087 20.9349 149.482 20.6902 148.68 20.6902C147.614 20.6902 146.76 21.0238 146.117 21.691C145.474 22.3582 145.157 23.2552 145.157 24.3746V31.9064C145.157 34.2563 143.955 35.435 141.558 35.435L141.565 35.4425Z" fill="#231F20"/>
<path d="M171.04 35.5165C168.854 35.5165 166.949 35.1088 165.323 34.3008C163.697 33.4927 162.427 32.3288 161.52 30.8091C160.612 29.2969 160.159 27.5029 160.159 25.4346C160.159 23.863 160.408 22.4619 160.915 21.2165C161.421 19.9785 162.155 18.9184 163.115 18.0436C164.076 17.1689 165.225 16.5017 166.556 16.0421C167.886 15.5825 169.384 15.3527 171.032 15.3527C173.217 15.3527 175.123 15.7604 176.748 16.5684C178.374 17.3765 179.637 18.5329 180.529 20.0378C181.421 21.5427 181.868 23.3367 181.868 25.4272C181.868 26.9691 181.61 28.3702 181.104 29.623C180.597 30.8759 179.871 31.9434 178.926 32.8181C177.981 33.6929 176.832 34.3601 175.486 34.8197C174.14 35.2793 172.65 35.5091 171.024 35.5091L171.04 35.5165Z" fill="#EE1C4E"/>
<path d="M195.282 35.5165C193.278 35.5165 191.637 35.2126 190.344 34.6121C189.051 34.0116 188.083 33.0998 187.448 31.884C186.805 30.6683 186.488 29.1486 186.488 27.3175V20.9274H185.127C184.272 20.9274 183.614 20.705 183.146 20.2602C182.677 19.8154 182.442 19.1779 182.442 18.3402C182.442 17.5025 182.677 16.8724 183.146 16.435C183.614 15.9976 184.272 15.79 185.127 15.79H186.488V13.3585C186.488 12.2095 186.798 11.3347 187.41 10.7342C188.023 10.1338 188.9 9.82983 190.049 9.82983C191.199 9.82983 192.076 10.1338 192.688 10.7342C193.301 11.3347 193.611 12.2095 193.611 13.3585V15.79H196.892C197.769 15.79 198.442 16.005 198.911 16.435C199.38 16.8649 199.614 17.5025 199.614 18.3402C199.614 19.1779 199.38 19.8154 198.911 20.2602C198.442 20.705 197.769 20.9274 196.892 20.9274H193.611V27.0877C193.611 28.0588 193.845 28.7705 194.314 29.2227C194.783 29.6823 195.524 29.9121 196.537 29.9121C196.907 29.9121 197.27 29.8751 197.618 29.7935C197.966 29.712 198.284 29.6749 198.578 29.6749C199.002 29.6453 199.35 29.7713 199.614 30.0456C199.879 30.3199 200.015 30.9426 200.015 31.9063C200.015 32.6921 199.894 33.3519 199.652 33.8856C199.41 34.4194 198.987 34.8048 198.374 35.0421C198.004 35.1755 197.497 35.2867 196.854 35.3757C196.212 35.4646 195.698 35.5165 195.297 35.5165H195.282Z" fill="#231F20"/>
<path d="M17.6558 25.6718C20.1155 25.6718 22.1095 23.7169 22.1095 21.3054C22.1095 18.894 20.1155 16.9391 17.6558 16.9391C15.1961 16.9391 13.2021 18.894 13.2021 21.3054C13.2021 23.7169 15.1961 25.6718 17.6558 25.6718Z" fill="#EE1C4E"/>
<path d="M30.9491 20.3862C28.537 20.3862 26.5786 22.3062 26.5786 24.671V32.2844C26.4727 33.2036 25.7241 33.9375 24.7865 34.0413H17.0209C14.6088 34.0413 12.6504 35.9613 12.6504 38.3261C12.6504 40.6909 14.5332 42.5368 16.8848 42.6035C27.002 42.4627 35.1684 34.4564 35.312 24.5376C35.244 22.2321 33.3158 20.3862 30.9491 20.3862Z" fill="black"/>
<path d="M4.36295 22.2173C6.77505 22.2173 8.73346 20.2973 8.73346 17.9325V10.3191C8.83932 9.39991 9.5879 8.66601 10.5255 8.56222H18.2911C20.7032 8.56222 22.6616 6.64221 22.6616 4.27741C22.6616 1.9126 20.7788 0.0667186 18.4272 0C8.31002 0.14085 0.143667 8.14709 0 18.0659C0.0680529 20.3714 1.99622 22.2173 4.36295 22.2173Z" fill="black"/>
</g>
<defs>
<clipPath id="clip0_903_456">
<rect width="200" height="42.6035" fill="white"/>
</clipPath>
</defs>
</svg>
