<svg width="285" height="285" viewBox="0 0 285 285" fill="none" xmlns="http://www.w3.org/2000/svg">
<g opacity="0.3" filter="url(#filter0_d_903_490)">
<path d="M21.4167 98.2502C43.7387 75.9283 79.9283 75.9283 102.25 98.2502C79.9283 75.9283 79.9283 39.7387 102.25 17.4168C124.572 -4.90518 160.762 -4.90517 183.084 17.4168C205.406 39.7387 205.406 75.9283 183.084 98.2502C205.406 75.9283 241.595 75.9283 263.917 98.2503C286.239 120.572 286.239 156.762 263.917 179.084C241.595 201.406 205.406 201.406 183.084 179.084C205.406 201.406 205.406 237.595 183.084 259.917C160.762 282.239 124.572 282.239 102.25 259.917C79.9283 237.595 79.9283 201.406 102.25 179.084C79.9283 201.406 43.7387 201.406 21.4167 179.084C-0.905185 156.762 -0.905185 120.572 21.4167 98.2502Z" fill="white"/>
</g>
<defs>
<filter id="filter0_d_903_490" x="0.675293" y="0.675293" width="283.983" height="283.983" filterUnits="userSpaceOnUse" color-interpolation-filters="sRGB">
<feFlood flood-opacity="0" result="BackgroundImageFix"/>
<feColorMatrix in="SourceAlpha" type="matrix" values="0 0 0 0 0 0 0 0 0 0 0 0 0 0 0 0 0 0 127 0" result="hardAlpha"/>
<feOffset dy="4"/>
<feGaussianBlur stdDeviation="2"/>
<feComposite in2="hardAlpha" operator="out"/>
<feColorMatrix type="matrix" values="0 0 0 0 0 0 0 0 0 0 0 0 0 0 0 0 0 0 0.25 0"/>
<feBlend mode="normal" in2="BackgroundImageFix" result="effect1_dropShadow_903_490"/>
<feBlend mode="normal" in="SourceGraphic" in2="effect1_dropShadow_903_490" result="shape"/>
</filter>
</defs>
</svg>
