<svg width="29" height="34" viewBox="0 0 29 34" fill="none" xmlns="http://www.w3.org/2000/svg">
<path d="M14.1248 20.4876C16.0925 20.4876 17.6877 18.9275 17.6877 17.003C17.6877 15.0785 16.0925 13.5184 14.1248 13.5184C12.157 13.5184 10.5618 15.0785 10.5618 17.003C10.5618 18.9275 12.157 20.4876 14.1248 20.4876Z" fill="#EE1C4E"/>
<path d="M24.7592 16.2693C22.8295 16.2693 21.2628 17.8016 21.2628 19.6889V25.7647C21.1781 26.4983 20.5792 27.084 19.8291 27.1669H13.6166C11.687 27.1669 10.1202 28.6991 10.1202 30.5864C10.1202 32.4736 11.6265 33.9467 13.5077 34C21.6015 33.8876 28.1346 27.4982 28.2495 19.5824C28.1951 17.7425 26.6525 16.2693 24.7592 16.2693Z" fill="black"/>
<path d="M3.49036 17.7306C5.42004 17.7306 6.98677 16.1984 6.98677 14.3111V8.23525C7.07146 7.50165 7.67032 6.91596 8.42042 6.83313H14.6329C16.5626 6.83313 18.1293 5.30085 18.1293 3.41361C18.1293 1.52636 16.6231 0.0532452 14.7418 0C6.64802 0.112406 0.114934 6.50183 0 14.4176C0.0544423 16.2575 1.59698 17.7306 3.49036 17.7306Z" fill="black"/>
</svg>
