<svg width="229" height="254" viewBox="0 0 229 254" fill="none" xmlns="http://www.w3.org/2000/svg">
<path d="M163.579 16.2527C183.967 36.641 183.967 69.6959 163.579 90.0842C183.967 69.6959 217.022 69.6958 237.41 90.0842C257.799 110.473 257.799 143.527 237.41 163.916C217.022 184.304 183.967 184.304 163.579 163.916C183.967 184.304 183.967 217.359 163.579 237.747C143.19 258.136 110.136 258.136 89.7473 237.747C69.359 217.359 69.359 184.304 89.7473 163.916C69.359 184.304 36.3041 184.304 15.9158 163.916C-4.47258 143.527 -4.47257 110.473 15.9158 90.0842C36.3042 69.6958 69.359 69.6959 89.7473 90.0842C69.359 69.6959 69.359 36.641 89.7473 16.2527C110.136 -4.13568 143.19 -4.13568 163.579 16.2527Z" fill="#FFD230"/>
</svg>
