<svg width="108" height="55" viewBox="0 0 108 55" fill="none" xmlns="http://www.w3.org/2000/svg">
<path d="M69.5371 6.70898C78.2131 15.385 78.2131 29.451 69.5371 38.127C78.2131 29.451 92.2791 29.451 100.955 38.127C109.631 46.8029 109.631 60.8689 100.955 69.5449C92.2791 78.2209 78.2131 78.2209 69.5371 69.5449C78.2131 78.2209 78.2131 92.2869 69.5371 100.963C60.8611 109.639 46.7951 109.639 38.1191 100.963C29.4432 92.2869 29.4432 78.2209 38.1191 69.5449C29.4432 78.2209 15.3772 78.2209 6.70117 69.5449C-1.97481 60.8689 -1.9748 46.8029 6.70117 38.127C15.3772 29.451 29.4432 29.451 38.1191 38.127C29.4432 29.451 29.4432 15.385 38.1191 6.70898C46.7951 -1.967 60.8611 -1.967 69.5371 6.70898Z" fill="#FFD230"/>
</svg>
