<svg width="121" height="121" viewBox="0 0 121 121" fill="none" xmlns="http://www.w3.org/2000/svg">
<path opacity="0.3" d="M30.25 0C46.9569 0 60.5 13.5431 60.5 30.25C60.5 13.5431 74.0431 0 90.75 0C107.457 0 121 13.5431 121 30.25C121 46.9569 107.457 60.5 90.75 60.5C107.457 60.5 121 74.0431 121 90.75C121 107.457 107.457 121 90.75 121C74.0431 121 60.5 107.457 60.5 90.75C60.5 107.457 46.9569 121 30.25 121C13.5431 121 0 107.457 0 90.75C0 74.0431 13.5431 60.5 30.25 60.5C13.5431 60.5 0 46.9569 0 30.25C0 13.5431 13.5431 0 30.25 0Z" fill="white"/>
</svg>
